<svg width="176" height="176" viewBox="0 0 176 176" fill="none" xmlns="http://www.w3.org/2000/svg">
<path d="M87.6667 0L83.5025 1.9725L6.79417 34.19L0 37.0392V43.8333C0 80.215 14.6842 112.213 32.2175 135.664C40.9842 147.28 50.4083 156.923 59.6133 163.717C68.8183 170.512 77.8042 175.333 87.6667 175.333C97.7483 175.333 106.515 170.512 115.72 163.717C124.925 156.923 134.349 147.28 143.116 135.664C160.649 112.213 175.333 80.215 175.333 43.8333V37.0392L168.539 34.19L91.8308 1.9725L87.6667 0ZM87.6667 23.8892V153.417C86.79 153.417 80.4342 151.882 73.2017 146.622C65.9692 141.362 57.6408 132.815 49.97 122.733C35.9433 104.104 24.985 78.2425 23.2317 50.8467L87.6667 24.1083V23.8892Z" fill="#DA4100"/>
</svg>
