<svg width="176" height="176" viewBox="0 0 176 176" fill="none" xmlns="http://www.w3.org/2000/svg">
<path d="M87.6667 0C81.53 0 76.7083 4.82167 76.7083 10.9583C76.7083 17.095 81.53 21.9167 87.6667 21.9167C93.8033 21.9167 98.625 17.095 98.625 10.9583C98.625 4.82167 93.8033 0 87.6667 0ZM32.875 21.9167C26.7383 21.9167 21.9167 26.7383 21.9167 32.875C21.9167 39.0117 26.7383 43.8333 32.875 43.8333C39.0117 43.8333 43.8333 39.0117 43.8333 32.875C43.8333 26.7383 39.0117 21.9167 32.875 21.9167ZM142.458 21.9167C136.322 21.9167 131.5 26.7383 131.5 32.875C131.5 39.0117 136.322 43.8333 142.458 43.8333C148.595 43.8333 153.417 39.0117 153.417 32.875C153.417 26.7383 148.595 21.9167 142.458 21.9167ZM87.6667 43.8333C63.5583 43.8333 43.8333 63.5583 43.8333 87.6667C43.8333 111.775 63.5583 131.5 87.6667 131.5C111.775 131.5 131.5 111.775 131.5 87.6667C131.5 63.5583 111.775 43.8333 87.6667 43.8333ZM10.9583 76.7083C4.82167 76.7083 0 81.53 0 87.6667C0 93.8033 4.82167 98.625 10.9583 98.625C17.095 98.625 21.9167 93.8033 21.9167 87.6667C21.9167 81.53 17.095 76.7083 10.9583 76.7083ZM164.375 76.7083C158.238 76.7083 153.417 81.53 153.417 87.6667C153.417 93.8033 158.238 98.625 164.375 98.625C170.512 98.625 175.333 93.8033 175.333 87.6667C175.333 81.53 170.512 76.7083 164.375 76.7083ZM32.875 131.5C26.7383 131.5 21.9167 136.322 21.9167 142.458C21.9167 148.595 26.7383 153.417 32.875 153.417C39.0117 153.417 43.8333 148.595 43.8333 142.458C43.8333 136.322 39.0117 131.5 32.875 131.5ZM142.458 131.5C136.322 131.5 131.5 136.322 131.5 142.458C131.5 148.595 136.322 153.417 142.458 153.417C148.595 153.417 153.417 148.595 153.417 142.458C153.417 136.322 148.595 131.5 142.458 131.5ZM87.6667 153.417C81.53 153.417 76.7083 158.238 76.7083 164.375C76.7083 170.512 81.53 175.333 87.6667 175.333C93.8033 175.333 98.625 170.512 98.625 164.375C98.625 158.238 93.8033 153.417 87.6667 153.417Z" fill="#DA4100"/>
</svg>
