<svg width="122" height="43" viewBox="0 0 122 43" fill="none" xmlns="http://www.w3.org/2000/svg">
<path d="M4.30469 37C3.97656 37 3.73633 36.9238 3.58398 36.7715C3.43164 36.6191 3.35547 36.3848 3.35547 36.0684V15.748C3.35547 15.2793 3.77734 15.0449 4.62109 15.0449H4.86719C5.69922 15.0449 6.11523 15.2793 6.11523 15.748V34.627H14.7109C14.9336 34.627 15.0918 34.7031 15.1855 34.8555C15.2793 34.9961 15.3262 35.2305 15.3262 35.5586V36.0684C15.3262 36.3848 15.2793 36.6191 15.1855 36.7715C15.0918 36.9238 14.9336 37 14.7109 37H4.30469ZM24.8359 37.1758C22.2461 37.1758 20.3184 36.502 19.0527 35.1543C17.7988 33.7949 17.1719 31.7207 17.1719 28.9316C17.1719 26.166 17.7871 24.0684 19.0176 22.6387C20.248 21.1973 22.0586 20.4766 24.4492 20.4766C26.582 20.4766 28.1875 21.168 29.2656 22.5508C30.3555 23.9336 30.9004 25.9609 30.9004 28.6328C30.9004 28.75 30.8359 28.9141 30.707 29.125C30.5898 29.3242 30.4434 29.5059 30.2676 29.6699C30.1035 29.8223 29.9629 29.8984 29.8457 29.8984H19.9844C20.1133 31.6445 20.5586 32.9219 21.3203 33.7305C22.0938 34.5273 23.2539 34.9258 24.8008 34.9258C25.668 34.9258 26.4121 34.8203 27.0332 34.6094C27.666 34.3984 28.2754 34.1406 28.8613 33.8359C28.9199 33.8125 29.0078 33.7715 29.125 33.7129C29.2422 33.6543 29.3242 33.625 29.3711 33.625C29.5 33.625 29.6465 33.7305 29.8105 33.9414C29.9863 34.1406 30.1328 34.3691 30.25 34.627C30.3789 34.873 30.4434 35.0547 30.4434 35.1719C30.4434 35.4297 30.1855 35.7168 29.6699 36.0332C29.1543 36.3496 28.4629 36.6191 27.5957 36.8418C26.7402 37.0645 25.8203 37.1758 24.8359 37.1758ZM28.1055 27.6484C28.1055 24.3672 26.8574 22.7266 24.3613 22.7266C21.6777 22.7266 20.2188 24.3672 19.9844 27.6484H28.1055ZM39.373 37.0527C38.6348 37.0527 38.2129 36.8887 38.1074 36.5605L33.0801 21.5312C33.0098 21.3203 32.9746 21.1855 32.9746 21.127C32.9746 20.9629 33.0859 20.834 33.3086 20.7402C33.5312 20.6465 33.8711 20.5996 34.3281 20.5996H34.4863C35.2129 20.5996 35.6289 20.7637 35.7344 21.0918L38.916 31.0586C39.1738 31.832 39.4727 32.8867 39.8125 34.2227L40.0059 34.9609H40.1465L40.3574 34.0293C40.6152 32.7988 40.8555 31.832 41.0781 31.1289L44.2949 21.0918C44.4004 20.7637 44.8281 20.5996 45.5781 20.5996H45.666C46.4512 20.5996 46.8438 20.7754 46.8438 21.127C46.8438 21.2441 46.8027 21.3848 46.7207 21.5488L41.7109 36.5605C41.6055 36.8887 41.1836 37.0527 40.4453 37.0527H39.373ZM56.8633 37.1758C54.2734 37.1758 52.3457 36.502 51.0801 35.1543C49.8262 33.7949 49.1992 31.7207 49.1992 28.9316C49.1992 26.166 49.8145 24.0684 51.0449 22.6387C52.2754 21.1973 54.0859 20.4766 56.4766 20.4766C58.6094 20.4766 60.2148 21.168 61.293 22.5508C62.3828 23.9336 62.9277 25.9609 62.9277 28.6328C62.9277 28.75 62.8633 28.9141 62.7344 29.125C62.6172 29.3242 62.4707 29.5059 62.2949 29.6699C62.1309 29.8223 61.9902 29.8984 61.873 29.8984H52.0117C52.1406 31.6445 52.5859 32.9219 53.3477 33.7305C54.1211 34.5273 55.2812 34.9258 56.8281 34.9258C57.6953 34.9258 58.4395 34.8203 59.0605 34.6094C59.6934 34.3984 60.3027 34.1406 60.8887 33.8359C60.9473 33.8125 61.0352 33.7715 61.1523 33.7129C61.2695 33.6543 61.3516 33.625 61.3984 33.625C61.5273 33.625 61.6738 33.7305 61.8379 33.9414C62.0137 34.1406 62.1602 34.3691 62.2773 34.627C62.4062 34.873 62.4707 35.0547 62.4707 35.1719C62.4707 35.4297 62.2129 35.7168 61.6973 36.0332C61.1816 36.3496 60.4902 36.6191 59.623 36.8418C58.7676 37.0645 57.8477 37.1758 56.8633 37.1758ZM60.1328 27.6484C60.1328 24.3672 58.8848 22.7266 56.3887 22.7266C53.7051 22.7266 52.2461 24.3672 52.0117 27.6484H60.1328ZM70.9434 37.1758C69.9004 37.1758 68.9688 36.8594 68.1484 36.2266C67.3281 35.5938 66.918 34.4746 66.918 32.8691V14.1836C66.918 13.7266 67.334 13.498 68.166 13.498H68.3066C69.127 13.498 69.5371 13.7266 69.5371 14.1836V32.623C69.5371 33.4785 69.6895 34.0762 69.9941 34.416C70.2988 34.7559 70.709 34.9258 71.2246 34.9258C71.6113 34.9258 71.916 34.9023 72.1387 34.8555C72.3613 34.8086 72.5078 34.7852 72.5781 34.7852C72.7656 34.7852 72.918 34.9727 73.0352 35.3477C73.1641 35.7227 73.2285 36.0215 73.2285 36.2441C73.2285 36.8652 72.4668 37.1758 70.9434 37.1758Z" fill="black"/>
<path d="M94.156 37.3479H81.2453C80.7014 37.351 80.2579 36.9043 80.2548 36.35C80.2538 36.1719 80.2994 35.9968 80.3868 35.8425L82.2971 32.481" stroke="#DA4100" stroke-width="1.25" stroke-linecap="round" stroke-linejoin="round"/>
<path d="M118.186 30.6808L121.118 35.842C121.39 36.3219 121.229 36.9357 120.758 37.2129C120.608 37.3008 120.439 37.3471 120.266 37.3474H102.899" stroke="#DA4100" stroke-width="1.25" stroke-linecap="round" stroke-linejoin="round"/>
<path d="M92.2805 14.9133L99.9001 1.5058C100.17 1.02456 100.772 0.857447 101.244 1.13238C101.397 1.22133 101.523 1.35027 101.61 1.5058L108.737 14.0498" stroke="#DA4100" stroke-width="1.25" stroke-linecap="round" stroke-linejoin="round"/>
<path d="M119.034 22.7425C119.021 21.8409 118.831 20.9511 118.475 20.1252C117.087 16.6527 113.483 14.6647 109.87 15.3788C109.223 15.4815 108.586 15.6426 107.966 15.8603C107.723 15.5697 107.354 15.42 106.981 15.4602H104.679C104.412 15.4612 104.176 15.636 104.093 15.8941C103.76 16.8163 100.845 24.9733 99.9066 27.5092C99.6008 28.575 98.5779 29.2543 97.4974 29.1094C97.1417 29.0418 96.8304 28.8253 96.6388 28.5127C96.4557 28.2235 96.4001 27.8692 96.4858 27.5364L96.5257 27.4007C96.6189 27.0684 96.7253 26.6887 96.8518 26.3497L100.519 16.4907C100.644 16.1705 100.491 15.8078 100.176 15.6804C100.101 15.65 100.021 15.635 99.9398 15.6364H97.2245C96.6733 15.6089 96.1742 15.9664 96.0132 16.5043C95.4608 18.1045 94.9016 19.6641 94.3492 21.149C94.0498 21.9695 93.7569 22.8375 93.5039 23.6036C93.1712 24.6072 92.8384 25.6379 92.4258 26.6482C92.1855 27.3622 91.7763 28.0049 91.2344 28.5196C90.393 29.1898 89.3075 29.4545 88.2595 29.2451C86.8686 28.9535 86.6755 27.5567 86.7221 26.777C86.8053 25.9659 87.0025 25.1712 87.3077 24.4173C87.9733 22.661 89.2178 19.1691 90.1829 16.5993C90.2587 16.4059 90.2336 16.1867 90.1163 16.0161C90.0155 15.8307 89.818 15.7222 89.6105 15.7381H87.1148C86.8202 15.7362 86.5314 15.821 86.2828 15.9822C85.5437 16.5498 84.8473 17.1731 84.1997 17.8468C82.9931 19.0918 81.6815 20.2263 80.2797 21.2371C80.1126 21.3579 80.0095 21.5506 80.0002 21.7592C79.9943 21.9703 80.0947 22.1699 80.2665 22.2882C80.4323 22.3853 80.6311 22.4052 80.8122 22.3425H80.8721C81.258 22.2678 82.1166 22.0441 84.0334 21.5423C83.4107 23.0048 82.94 24.5297 82.6291 26.0922C82.2834 27.9766 82.7895 29.9193 84.0067 31.381C86.0034 33.8085 89.2844 33.9035 91.4941 32.9677C92.2586 32.6189 92.9398 32.1054 93.4907 31.4624C94.5696 32.7936 96.2311 33.4861 97.9166 33.3067L97.504 34.4457L97.3442 34.8932C96.6786 36.7782 95.8068 39.1176 95.3476 40.3177C95.1875 40.699 95.225 41.1366 95.4474 41.4839C95.6909 41.8207 96.0818 42.0137 96.4922 41.9992H98.7351C98.9982 42.0001 99.2331 41.8315 99.3208 41.5789C99.6802 40.5279 100.239 38.9751 100.772 37.4563L101.317 35.9172L102.648 32.1132L103.187 30.5808C103.424 30.8629 103.683 31.1259 103.959 31.3673C105.734 32.9394 108.115 33.6032 110.428 33.1709C112.402 32.8646 114.241 31.9625 115.706 30.5808C117.913 28.6084 119.135 25.7314 119.034 22.7425ZM114.422 23.5426C114.241 25.4588 113.199 27.1816 111.6 28.2077C110.807 28.7309 109.883 29.0131 108.938 29.0213C107.477 29.0215 106.186 28.0507 105.757 26.6277C105.674 26.3682 105.609 26.1032 105.564 25.8344V25.4141C105.627 23.9817 106.153 22.6108 107.061 21.5152C107.997 20.3497 109.372 19.6406 110.848 19.5623H111.088C112.38 19.5573 113.553 20.3316 114.076 21.5354C114.385 22.1543 114.506 22.8534 114.422 23.5426Z" stroke="#DA4100" stroke-width="1.25" stroke-linecap="round" stroke-linejoin="round"/>
</svg>
