<svg width="159" height="52" viewBox="0 0 159 52" fill="none" xmlns="http://www.w3.org/2000/svg">
<path d="M9.63086 44C9.2207 44 8.92041 43.9048 8.72998 43.7144C8.53955 43.5239 8.44434 43.231 8.44434 42.8354V17.4351C8.44434 16.8491 8.97168 16.5562 10.0264 16.5562H10.334C11.374 16.5562 11.894 16.8491 11.894 17.4351V41.0337H22.6387C22.917 41.0337 23.1147 41.1289 23.2319 41.3193C23.3491 41.4951 23.4077 41.7881 23.4077 42.1982V42.8354C23.4077 43.231 23.3491 43.5239 23.2319 43.7144C23.1147 43.9048 22.917 44 22.6387 44H9.63086ZM35.2949 44.2197C32.0576 44.2197 29.6479 43.3774 28.0659 41.6929C26.4985 39.9937 25.7148 37.4009 25.7148 33.9146C25.7148 30.4575 26.4839 27.8354 28.022 26.0483C29.5601 24.2466 31.8232 23.3457 34.8115 23.3457C37.4775 23.3457 39.4844 24.21 40.832 25.9385C42.1943 27.667 42.8755 30.2012 42.8755 33.541C42.8755 33.6875 42.7949 33.8926 42.6338 34.1562C42.4873 34.4053 42.3042 34.6323 42.0845 34.8374C41.8794 35.0278 41.7036 35.123 41.5571 35.123H29.2305C29.3916 37.3057 29.9482 38.9023 30.9004 39.9131C31.8672 40.9092 33.3174 41.4072 35.251 41.4072C36.335 41.4072 37.2651 41.2754 38.0415 41.0117C38.8325 40.748 39.5942 40.4258 40.3267 40.0449C40.3999 40.0156 40.5098 39.9644 40.6562 39.8911C40.8027 39.8179 40.9053 39.7812 40.9639 39.7812C41.125 39.7812 41.3081 39.9131 41.5132 40.1768C41.7329 40.4258 41.916 40.7114 42.0625 41.0337C42.2236 41.3413 42.3042 41.5684 42.3042 41.7148C42.3042 42.0371 41.9819 42.396 41.3374 42.7915C40.6929 43.187 39.8286 43.5239 38.7446 43.8022C37.6753 44.0806 36.5254 44.2197 35.2949 44.2197ZM39.3818 32.3105C39.3818 28.209 37.8218 26.1582 34.7017 26.1582C31.3472 26.1582 29.5234 28.209 29.2305 32.3105H39.3818ZM53.4663 44.0659C52.5435 44.0659 52.0161 43.8608 51.8843 43.4507L45.6001 24.6641C45.5122 24.4004 45.4683 24.2319 45.4683 24.1587C45.4683 23.9536 45.6074 23.7925 45.8857 23.6753C46.1641 23.5581 46.5889 23.4995 47.1602 23.4995H47.3579C48.2661 23.4995 48.7861 23.7046 48.918 24.1147L52.895 36.5732C53.2173 37.54 53.5908 38.8584 54.0156 40.5283L54.2573 41.4512H54.4331L54.6968 40.2866C55.019 38.7485 55.3193 37.54 55.5977 36.6611L59.6187 24.1147C59.7505 23.7046 60.2852 23.4995 61.2227 23.4995H61.3325C62.314 23.4995 62.8047 23.7192 62.8047 24.1587C62.8047 24.3052 62.7534 24.481 62.6509 24.686L56.3887 43.4507C56.2568 43.8608 55.7295 44.0659 54.8066 44.0659H53.4663ZM75.3291 44.2197C72.0918 44.2197 69.6821 43.3774 68.1001 41.6929C66.5327 39.9937 65.749 37.4009 65.749 33.9146C65.749 30.4575 66.5181 27.8354 68.0562 26.0483C69.5942 24.2466 71.8574 23.3457 74.8457 23.3457C77.5117 23.3457 79.5186 24.21 80.8662 25.9385C82.2285 27.667 82.9097 30.2012 82.9097 33.541C82.9097 33.6875 82.8291 33.8926 82.668 34.1562C82.5215 34.4053 82.3384 34.6323 82.1187 34.8374C81.9136 35.0278 81.7378 35.123 81.5913 35.123H69.2646C69.4258 37.3057 69.9824 38.9023 70.9346 39.9131C71.9014 40.9092 73.3516 41.4072 75.2852 41.4072C76.3691 41.4072 77.2993 41.2754 78.0757 41.0117C78.8667 40.748 79.6284 40.4258 80.3608 40.0449C80.4341 40.0156 80.5439 39.9644 80.6904 39.8911C80.8369 39.8179 80.9395 39.7812 80.998 39.7812C81.1592 39.7812 81.3423 39.9131 81.5474 40.1768C81.7671 40.4258 81.9502 40.7114 82.0967 41.0337C82.2578 41.3413 82.3384 41.5684 82.3384 41.7148C82.3384 42.0371 82.0161 42.396 81.3716 42.7915C80.7271 43.187 79.8628 43.5239 78.7788 43.8022C77.7095 44.0806 76.5596 44.2197 75.3291 44.2197ZM79.416 32.3105C79.416 28.209 77.856 26.1582 74.7358 26.1582C71.3813 26.1582 69.5576 28.209 69.2646 32.3105H79.416ZM92.9292 44.2197C91.6255 44.2197 90.4609 43.8242 89.4355 43.0332C88.4102 42.2422 87.8975 40.8433 87.8975 38.8364V15.4795C87.8975 14.9082 88.4175 14.6226 89.4575 14.6226H89.6333C90.6587 14.6226 91.1714 14.9082 91.1714 15.4795V38.5288C91.1714 39.5981 91.3618 40.3452 91.7427 40.77C92.1235 41.1948 92.6362 41.4072 93.2808 41.4072C93.7642 41.4072 94.145 41.3779 94.4233 41.3193C94.7017 41.2607 94.8848 41.2314 94.9727 41.2314C95.207 41.2314 95.3975 41.4658 95.5439 41.9346C95.7051 42.4033 95.7856 42.7769 95.7856 43.0552C95.7856 43.8315 94.8335 44.2197 92.9292 44.2197Z" fill="white"/>
<path d="M125.245 45.3266H109.517C108.854 45.3303 108.314 44.7856 108.31 44.1096C108.309 43.8925 108.365 43.6789 108.471 43.4907L110.798 39.3913" stroke="#DA4100" stroke-width="1.25" stroke-linecap="round" stroke-linejoin="round"/>
<path d="M154.517 37.196L158.089 43.4901C158.42 44.0754 158.224 44.8238 157.65 45.1619C157.468 45.2691 157.261 45.3256 157.051 45.3259H135.895" stroke="#DA4100" stroke-width="1.25" stroke-linecap="round" stroke-linejoin="round"/>
<path d="M122.96 17.9674L132.242 1.61683C132.571 1.02995 133.304 0.826155 133.879 1.16143C134.065 1.26992 134.219 1.42716 134.325 1.61683L143.006 16.9144" stroke="#DA4100" stroke-width="1.25" stroke-linecap="round" stroke-linejoin="round"/>
<path d="M155.551 27.5152C155.534 26.4157 155.302 25.3306 154.87 24.3233C153.179 20.0886 148.788 17.6642 144.387 18.5351C143.598 18.6603 142.822 18.8568 142.068 19.1222C141.771 18.7678 141.322 18.5854 140.868 18.6343H138.063C137.738 18.6355 137.451 18.8487 137.349 19.1635C136.944 20.2881 133.393 30.2356 132.25 33.3282C131.877 34.6279 130.631 35.4564 129.315 35.2796C128.882 35.1972 128.502 34.9333 128.269 34.552C128.046 34.1993 127.978 33.7673 128.083 33.3613L128.131 33.1959C128.245 32.7907 128.374 32.3277 128.528 31.9142L132.996 19.891C133.148 19.5006 132.961 19.0582 132.578 18.9029C132.487 18.8658 132.389 18.8475 132.29 18.8492H128.982C128.311 18.8156 127.703 19.2516 127.507 19.9076C126.834 21.859 126.153 23.761 125.48 25.5719C125.115 26.5725 124.758 27.631 124.45 28.5653C124.045 29.7892 123.639 31.0461 123.137 32.2782C122.844 33.149 122.346 33.9327 121.685 34.5605C120.661 35.3777 119.338 35.7005 118.062 35.4452C116.367 35.0896 116.132 33.3861 116.189 32.4353C116.29 31.4461 116.53 30.477 116.902 29.5576C117.713 27.4158 119.229 23.1574 120.405 20.0235C120.497 19.7877 120.466 19.5203 120.323 19.3123C120.201 19.0862 119.96 18.9539 119.707 18.9733H116.667C116.308 18.9709 115.956 19.0743 115.654 19.2709C114.753 19.9631 113.905 20.7233 113.116 21.5448C111.646 23.0631 110.048 24.4467 108.341 25.6793C108.137 25.8267 108.012 26.0617 108 26.316C107.993 26.5735 108.115 26.8169 108.325 26.9611C108.527 27.0796 108.769 27.1038 108.989 27.0273H109.062C109.533 26.9363 110.578 26.6635 112.913 26.0516C112.155 27.8351 111.581 29.6947 111.203 31.6002C110.782 33.8982 111.398 36.2673 112.881 38.05C115.313 41.0103 119.31 41.1261 122.002 39.9849C122.933 39.5596 123.763 38.9334 124.434 38.1492C125.748 39.7727 127.772 40.6171 129.826 40.3983L129.323 41.7874L129.128 42.3331C128.318 44.6319 127.255 47.4848 126.696 48.9484C126.501 49.4133 126.547 49.947 126.818 50.3705C127.114 50.7813 127.591 51.0166 128.09 50.999H130.823C131.143 51.0001 131.429 50.7945 131.536 50.4864C131.974 49.2047 132.655 47.3111 133.304 45.4588L133.968 43.5818L135.59 38.9429L136.246 37.0741C136.535 37.4181 136.85 37.7388 137.187 38.0332C139.349 39.9504 142.249 40.7599 145.067 40.2328C147.472 39.8593 149.711 38.7591 151.496 37.0741C154.184 34.6687 155.673 31.1601 155.551 27.5152ZM149.932 28.4909C149.712 30.8278 148.442 32.9287 146.495 34.18C145.528 34.8181 144.403 35.1623 143.252 35.1723C141.472 35.1725 139.9 33.9885 139.376 32.2533C139.275 31.9368 139.197 31.6136 139.141 31.2858V30.7732C139.218 29.0264 139.859 27.3546 140.965 26.0184C142.105 24.5971 143.78 23.7323 145.579 23.6369H145.87C147.445 23.6308 148.873 24.5751 149.511 26.0431C149.887 26.7979 150.034 27.6504 149.932 28.4909Z" stroke="white" stroke-width="1.25" stroke-linecap="round" stroke-linejoin="round"/>
</svg>
